# xmcd
#
# Track frame offsets: 
#        150
#        17555
#        39162
#        58660
#        69840
#        87385
#        103771
#        119680
#        133856
#        150779
#        165256
#        181656
#        199265
#        214789
#        237140
#
# Disc length: 3414 seconds
#
# Revision: 6
# Processed by: cddbd v1.5.2PL0 Copyright (c) Steve Scherf et al.
# Submitted via: ExactAudioCopyFreeDBPlugin 1.0
#
DISCID=bb0d540f
DTITLE=Dixie Chicks - Essential [CD 2)
DYEAR=2010
DGENRE=Country
TTITLE0=Ready To Run
TTITLE1=Cowboy Take Me Away
TTITLE2=Goodbye Earl
TTITLE3=Some Days You Gotta Dance
TTITLE4=Heartbreak Town
TTITLE5=Sin Wagon
TTITLE6=Without You
TTITLE7=Let Him Fly
TTITLE8=Wide Open Spaces
TTITLE9=There's Your Trouble
TTITLE10=You Were Mine
TTITLE11=I Can Love You Better
TTITLE12=Tonight The Heartache's On Me
TTITLE13=Give It Up Or Let Me Go
TTITLE14=I Believe In Love
EXTD=
EXTT0=
EXTT1=
EXTT2=
EXTT3=
EXTT4=
EXTT5=
EXTT6=
EXTT7=
EXTT8=
EXTT9=
EXTT10=
EXTT11=
EXTT12=
EXTT13=
EXTT14=
PLAYORDER=
